<?xml version="1.0" encoding="iso-8859-1"?>
<!-- Generator: Adobe Illustrator 19.0.0, SVG Export Plug-In . SVG Version: 6.00 Build 0)  -->
<svg version="1.1" id="Layer_1" xmlns="http://www.w3.org/2000/svg" xmlns:xlink="http://www.w3.org/1999/xlink" x="0px" y="0px"
	 viewBox="0 0 307.488 307.488" style="enable-background:new 0 0 307.488 307.488;" xml:space="preserve">
<g>
	<g>
		<path style="fill:#A7A6AC;" d="M136.926,191.777l36.414-36.414c12.16,8.073,26.424,12.414,41.359,12.413
			c0.006,0.001,0.014,0.001,0.018,0.001c20.035-0.005,38.869-7.808,53.031-21.972l35.346-35.346c5.859-5.857,5.859-15.355,0-21.212
			c-5.857-5.86-15.355-5.86-21.213,0l-35.346,35.346c-8.498,8.498-19.801,13.179-31.824,13.183c-0.004,0-0.008,0.001-0.012,0.001
			c-6.826,0-13.422-1.511-19.402-4.371l65.371-65.373c5.859-5.857,5.859-15.355,0-21.213c-5.857-5.857-15.355-5.857-21.213,0
			L174.1,112.178c-7.969-16.728-5.035-37.393,8.797-51.226l35.346-35.345c5.859-5.859,5.859-15.356,0-21.213
			c-5.857-5.859-15.355-5.859-21.213,0L161.684,39.74c-25.615,25.615-28.799,65.296-9.549,94.402l-36.422,36.423L136.926,191.777z"
			/>
	</g>
	<path style="fill:#EAB355;" d="M112.176,152.887c-2.813-2.813-6.627-4.395-10.605-4.395c-3.979,0-7.795,1.582-10.607,4.395
		L13.18,230.669C4.682,239.167,0,250.469,0,262.487c0.002,12.021,4.684,23.323,13.182,31.82c8.5,8.499,19.799,13.18,31.818,13.181
		c12.02-0.001,23.32-4.682,31.82-13.181l77.781-77.78c5.857-5.857,5.859-15.355,0-21.213l-10.605-10.608l-21.213-21.212
		L112.176,152.887z"/>
</g>
<g>
</g>
<g>
</g>
<g>
</g>
<g>
</g>
<g>
</g>
<g>
</g>
<g>
</g>
<g>
</g>
<g>
</g>
<g>
</g>
<g>
</g>
<g>
</g>
<g>
</g>
<g>
</g>
<g>
</g>
</svg>
